# xmcd
# Track frame offsets:
# 150
# 22006
# 40914
# 57705
# 77382
# 99201
# 123649
# 146793
# 161916
# 179553
# 196507
# 209789
#
# Disc length: 3107 seconds
# Revision: 0
# Processed by: cddbd v1.5.2PL0 Copyright (c) Steve Scherf et al.
# Submitted via: VisiTrax 2.10.3.257 - For more info visit www.synapsa.com
#
DISCID=af0c210c
DTITLE=Jenkins, Bo - Bo Jenkins Roadtrain
DYEAR=1995
DGENRE=
TTITLE0=One from a Hundred
TTITLE1=She ran off with my Guitar
TTITLE2=Young Boy gone Bad
TTITLE3=I,d like to Know
TTITLE4=Alright by Me
TTITLE5=Rot Gut Whisky
TTITLE6=P O S
TTITLE7=Ain't no Rock'Rollin Left in Me
TTITLE8=Last Thing I Wanted
TTITLE9=Over the Hill
TTITLE10=MJt Isa
TTITLE11=Another Mile
EXTD=
EXTT0=
EXTT1=
EXTT2=
EXTT3=
EXTT4=
EXTT5=
EXTT6=
EXTT7=
EXTT8=
EXTT9=
EXTT10=
EXTT11=
PLAYORDER=
